<svg version="1.1" viewBox="0.0 0.0 214.48818897637796 157.79527559055117" fill="none" stroke="none" stroke-linecap="square" stroke-miterlimit="10" xmlns:xlink="http://www.w3.org/1999/xlink" xmlns="http://www.w3.org/2000/svg"><clipPath id="p.0"><path d="m0 0l214.48819 0l0 157.79527l-214.48819 0l0 -157.79527z" clip-rule="nonzero"/></clipPath><g clip-path="url(#p.0)"><path fill="#000000" fill-opacity="0.0" d="m0 0l214.48819 0l0 157.79527l-214.48819 0z" fill-rule="evenodd"/><path fill="#000000" fill-opacity="0.0" d="m-12.535433 19.03412l163.46457 0l0 116.346466l-163.46457 0z" fill-rule="evenodd"/><path fill="#000000" d="m19.920652 106.00735l0 -55.999996l21.921873 0q6.0 0 10.828125 2.0q4.84375 2.0 8.28125 5.765625q3.4375038 3.75 5.281254 8.874996q1.84375 5.125 1.84375 11.359375q0 6.234375 -1.84375 11.40625q-1.84375 5.15625 -5.250004 8.875q-3.390625 3.71875 -8.265625 5.71875q-4.875 2.0 -10.875 2.0l-21.921873 0zm8.640625 -7.4375l-0.25 -0.875l13.124998 0q4.234375 0 7.546875 -1.359375q3.328125 -1.375 5.609375 -3.890625q2.28125 -2.515625 3.484375 -6.1875q1.203125 -3.6875 1.203125 -8.25q0 -4.5625 -1.203125 -8.203125q-1.203125 -3.640625 -3.53125 -6.187496q-2.3125 -2.5625 -5.59375 -3.921875q-3.28125 -1.375 -7.515625 -1.375l-13.359373 0l0.484375 -0.71875l0 40.968746zm43.75557 7.4375l21.6875 -55.999996l8.796875 0l21.515625 55.999996l-9.203125 0l-12.796875 -33.765625q-0.234375 -0.546875 -0.921875 -2.703125q-0.671875 -2.171875 -1.5625 -4.8125q-0.875 -2.6406212 -1.59375 -4.828121q-0.71875 -2.203125 -0.96875 -2.84375l1.84375 -0.09375q-0.484375 1.359375 -1.171875 3.453125q-0.671875 2.078125 -1.4375 4.406246q-0.75 2.3125 -1.46875 4.359375q-0.71875 2.03125 -1.203125 3.390625l-12.71875 33.4375l-8.796875 0zm9.59375 -13.921875l3.203125 -8.3125l25.4375 0l3.6875 8.3125l-32.328125 0z" fill-rule="nonzero"/><path fill="#000000" fill-opacity="0.0" d="m105.13386 -11.107612l105.88976 0l0 116.34646l-105.88976 0z" fill-rule="evenodd"/><path fill="#000000" d="m131.36252 75.865616l0 -56.0l8.46875 0l20.40625 33.203125l-4.078125 -0.078125l20.64064 -33.125l8.0 0l0 56.0l-8.640625 0l0 -22.953125q0 -7.203125 0.359375 -12.96875q0.359375 -5.765625 1.234375 -11.437498l1.125 2.953125l-18.312515 28.328123l-5.28125 0l-17.765625 -27.999998l0.875 -3.28125q0.890625 5.359373 1.25 10.999998q0.359375 5.640625 0.359375 13.40625l0 22.953125l-8.640625 0z" fill-rule="nonzero"/><path fill="#000000" fill-opacity="0.0" d="m105.13386 165.52231l105.88976 0l0 -116.34645l-105.88976 0z" fill-rule="evenodd"/><path fill="#000000" d="m184.79495 78.54908l0 56.000008l-8.46875 0l-20.40625 -33.203133l4.078125 0.078125l-20.640625 33.125008l-8.0 0l0 -56.000008l8.640625 0l0 22.953125q0 7.203125 -0.359375 12.96875q-0.359375 5.765625 -1.234375 11.4375l-1.125 -2.953125l18.3125 -28.328125l5.28125 0l17.765625 28.0l-0.875 3.28125q-0.890625 -5.359375 -1.25 -11.0q-0.359375 -5.640625 -0.359375 -13.40625l0 -22.953125l8.640625 0z" fill-rule="nonzero"/></g></svg>